<?xml version="1.0" standalone="no"?>
<!DOCTYPE svg PUBLIC "-//W3C//DTD SVG 20010904//EN"
 "http://www.w3.org/TR/2001/REC-SVG-20010904/DTD/svg10.dtd">
<svg version="1.0" xmlns="http://www.w3.org/2000/svg"
 width="900.000000pt" height="315.000000pt" viewBox="0 0 900.000000 315.000000"
 preserveAspectRatio="xMidYMid meet">
<metadata>
Created by potrace 1.10, written by Peter Selinger 2001-2011
</metadata>
<g transform="translate(0.000000,315.000000) scale(0.100000,-0.100000)"
fill="#ffffff" stroke="none">
<path d="M1090 2965 c-14 -8 -50 -22 -80 -31 -91 -26 -179 -104 -180 -157 0
-35 12 -59 61 -118 52 -63 58 -83 61 -202 1 -92 -1 -107 -20 -134 -20 -29 -25
-30 -109 -35 -103 -6 -254 -49 -296 -84 -16 -13 -32 -24 -37 -24 -5 0 -43 -35
-85 -77 -93 -93 -136 -176 -164 -314 -36 -182 -12 -344 70 -475 53 -85 101
-134 182 -182 74 -45 139 -62 267 -69 76 -4 111 -1 174 16 98 26 118 26 188 3
46 -15 69 -17 128 -10 145 17 250 83 250 156 0 30 -10 44 -67 101 l-68 65 -3
715 c-3 792 1 745 -71 815 -54 53 -147 72 -201 41z m161 -820 c-1 -407 -4
-763 -8 -792 -5 -46 -3 -54 20 -77 29 -29 60 -32 97 -11 14 8 40 14 58 15 40
0 59 -31 43 -72 -11 -29 -24 -32 -221 -44 -119 -7 -128 -3 -139 64 -8 49 -28
51 -80 8 -78 -65 -121 -78 -246 -74 -88 4 -122 9 -168 29 -122 51 -204 141
-245 268 -43 134 -26 345 38 472 46 90 152 178 271 224 54 22 79 25 182 25
104 0 124 -3 153 -21 19 -11 42 -19 51 -17 17 3 18 22 15 268 -3 213 -7 268
-18 281 -9 10 -39 19 -75 23 -47 6 -62 12 -75 31 -31 47 5 72 126 90 25 3 70
17 100 30 30 13 70 23 88 22 l34 -2 -1 -740z"/>
<path d="M780 2057 c-80 -27 -128 -63 -174 -130 -60 -87 -79 -156 -79 -277 1
-126 26 -212 81 -279 100 -122 303 -128 417 -11 l37 38 0 302 c1 350 7 329
-108 361 -84 23 -93 23 -174 -4z m127 -122 c37 -26 48 -115 31 -235 -1 -8 2
-32 6 -53 5 -20 5 -71 1 -113 -6 -67 -10 -78 -38 -104 -27 -25 -40 -30 -83
-30 -72 0 -117 35 -155 120 -18 39 -20 59 -16 145 6 143 44 212 142 264 47 25
82 27 112 6z"/>
<path d="M8207 2480 c-14 -11 -28 -20 -31 -20 -4 0 -32 -28 -64 -61 -31 -34
-92 -95 -134 -136 -80 -78 -114 -138 -102 -177 4 -11 30 -47 59 -79 63 -69 63
-70 64 -382 1 -110 6 -229 12 -265 22 -128 87 -222 190 -273 49 -24 66 -26
159 -26 57 1 111 4 119 8 154 72 193 107 206 183 6 35 3 44 -22 76 -44 54 -98
82 -160 82 -51 0 -53 1 -68 38 -14 31 -16 74 -13 250 l3 214 28 24 c15 13 38
24 51 24 13 0 47 23 84 56 58 52 62 59 62 98 0 34 -8 53 -34 88 -36 47 -94 88
-125 88 -27 0 -72 39 -87 76 -28 67 -107 134 -157 134 -8 0 -26 -9 -40 -20z
m101 -62 c16 -16 15 -48 -5 -141 -16 -77 -16 -80 2 -93 11 -8 31 -12 45 -10
57 11 196 16 208 8 8 -6 14 -29 14 -57 2 -77 -28 -86 -202 -55 -78 14 -74 35
-71 -361 3 -373 7 -405 49 -428 34 -18 70 -13 155 24 44 19 84 35 88 35 16 0
39 -32 39 -54 0 -42 -34 -71 -119 -100 -72 -25 -92 -28 -170 -24 -78 4 -94 8
-131 33 -25 17 -51 48 -66 78 l-25 48 1 346 c0 190 3 349 6 354 3 5 0 18 -6
29 -10 19 -17 21 -80 14 -63 -6 -69 -5 -80 16 -23 42 -6 65 75 100 88 39 124
75 155 157 12 32 29 66 37 76 18 20 63 23 81 5z"/>
<path d="M6055 2292 c-11 -2 -60 -18 -109 -34 -122 -41 -208 -108 -292 -228
-109 -157 -138 -374 -76 -567 54 -164 184 -302 347 -369 65 -27 79 -29 200
-29 150 1 190 11 290 78 70 46 174 156 205 217 11 21 32 74 47 117 25 70 28
92 28 208 0 135 -3 148 -56 260 -66 140 -175 246 -314 305 -58 25 -104 34
-162 32 -23 -1 -52 2 -65 6 -13 5 -32 6 -43 4z m231 -138 c114 -50 230 -169
276 -281 20 -51 23 -74 23 -198 l0 -140 -42 -87 c-52 -109 -148 -210 -247
-258 -62 -31 -67 -32 -178 -28 -106 3 -117 5 -181 38 -71 36 -158 115 -208
190 -80 118 -96 315 -40 468 46 127 135 235 241 291 51 27 63 29 176 30 110 1
127 -1 180 -25z"/>
<path d="M6023 2061 c-70 -28 -100 -57 -137 -133 -138 -284 15 -659 268 -658
41 0 124 40 158 76 40 43 75 128 90 219 12 70 12 91 -2 170 -35 192 -106 289
-242 329 -67 19 -80 19 -135 -3z m136 -130 c11 -11 28 -24 38 -30 33 -17 73
-104 80 -172 10 -103 5 -176 -17 -219 -11 -22 -20 -45 -20 -53 0 -21 -33 -47
-75 -58 -30 -8 -40 -7 -54 5 -10 9 -21 16 -25 16 -4 0 -21 10 -37 23 -102 74
-128 328 -47 449 17 25 81 55 121 57 9 1 26 -8 36 -18z"/>
<path d="M2155 2276 c-116 -27 -173 -61 -281 -167 -62 -60 -118 -155 -135
-229 -16 -71 -31 -125 -38 -140 -13 -26 4 -233 22 -270 10 -18 17 -39 17 -47
0 -48 107 -200 177 -252 122 -92 165 -106 323 -106 114 0 131 3 193 28 86 35
131 64 184 118 80 84 93 156 38 217 -51 57 -98 68 -181 42 -73 -22 -189 -36
-226 -27 -34 9 -125 97 -133 129 -14 54 -2 90 35 109 30 16 58 19 203 19 192
0 240 12 289 74 54 67 62 97 50 172 -22 135 -100 240 -225 303 -59 30 -77 34
-159 37 -56 2 -117 -2 -153 -10z m260 -114 c69 -28 113 -69 144 -136 34 -69
52 -161 39 -196 l-8 -22 -294 3 c-162 2 -298 0 -303 -4 -14 -15 -16 -167 -3
-231 16 -79 55 -150 100 -186 118 -94 305 -94 421 0 40 32 73 37 102 16 43
-33 3 -90 -116 -167 -89 -57 -146 -73 -262 -73 -125 1 -182 24 -278 113 -101
95 -147 209 -147 364 0 95 31 233 68 301 60 109 197 217 301 236 57 10 192 0
236 -18z"/>
<path d="M2168 2056 c-87 -36 -170 -109 -154 -135 3 -5 92 -8 198 -7 178 1
193 2 196 19 10 50 -30 105 -97 133 -46 19 -77 17 -143 -10z"/>
<path d="M2955 2269 c-93 -49 -132 -118 -101 -178 9 -16 38 -59 66 -95 48 -63
108 -184 124 -251 4 -16 20 -59 35 -95 16 -36 38 -92 50 -125 12 -33 29 -76
38 -95 8 -19 29 -73 45 -120 53 -150 162 -264 236 -245 44 11 126 71 155 112
15 21 36 65 47 96 11 31 33 86 50 122 16 36 30 68 30 71 0 6 42 116 72 189 11
28 25 61 30 75 5 14 18 42 29 62 10 20 19 43 19 50 0 31 75 166 116 210 36 39
44 54 44 85 0 32 -7 45 -43 79 -64 63 -115 78 -244 72 -76 -3 -118 -10 -143
-22 -48 -25 -120 -96 -120 -119 0 -10 11 -38 26 -62 20 -35 25 -55 23 -100 -3
-57 -35 -145 -60 -160 -30 -19 -71 75 -75 173 -1 43 3 58 22 81 40 47 33 86
-25 142 -29 28 -66 52 -88 58 -21 6 -101 11 -178 11 -123 0 -145 -3 -180 -21z
m140 -85 c66 -3 147 -1 180 4 77 13 105 3 105 -37 0 -36 -31 -61 -75 -61 -64
0 -70 -40 -24 -156 69 -172 113 -298 143 -414 18 -71 26 -86 44 -88 18 -3 23
5 37 55 29 106 85 276 140 422 65 171 62 191 -29 191 -39 0 -56 15 -56 52 0
40 29 48 127 35 55 -7 106 -7 164 0 103 12 129 5 129 -36 0 -35 -31 -61 -72
-61 -40 0 -75 -37 -102 -110 -46 -127 -195 -516 -216 -565 -12 -27 -35 -90
-52 -140 -17 -49 -35 -96 -41 -103 -7 -8 -28 -12 -61 -10 -51 3 -51 3 -66 48
-25 77 -291 763 -311 803 -21 41 -71 77 -106 77 -24 0 -53 34 -53 62 0 26 30
50 54 43 12 -3 75 -8 141 -11z"/>
<path d="M4735 2278 c-59 -10 -83 -11 -218 -8 -176 4 -347 -88 -347 -189 0
-31 9 -50 50 -101 29 -36 52 -77 56 -98 4 -21 8 -318 8 -662 1 -679 1 -673
-55 -726 -94 -89 -75 -181 46 -235 45 -20 68 -22 210 -23 182 -1 229 9 280 57
51 48 61 86 37 134 -11 21 -29 47 -41 57 -12 11 -31 35 -43 55 -20 32 -22 51
-26 235 -4 166 -2 208 11 238 10 24 22 37 34 36 10 0 52 5 93 12 41 6 89 13
107 14 56 5 201 95 285 177 43 41 78 80 78 87 0 6 15 40 34 74 52 94 73 228
58 368 -12 113 -30 166 -86 254 -57 90 -132 156 -229 204 -81 39 -94 43 -185
46 -53 2 -124 -1 -157 -6z m-185 -98 c10 -5 21 -21 24 -35 4 -14 10 -25 15
-25 4 0 32 13 62 30 52 28 59 30 182 30 124 0 129 -1 194 -32 134 -66 217
-172 247 -318 28 -134 13 -279 -40 -387 -42 -87 -151 -192 -249 -239 l-80 -39
-125 0 c-101 0 -131 4 -158 18 -52 28 -62 12 -56 -81 3 -43 6 -197 7 -344 2
-311 -2 -298 107 -324 67 -15 80 -25 80 -61 0 -36 -34 -52 -83 -40 -54 13
-307 12 -371 -1 -42 -9 -51 -7 -67 9 -41 41 -7 89 63 89 24 0 46 8 64 24 l28
23 0 763 c1 624 -1 766 -12 777 -7 7 -33 13 -57 13 -24 0 -56 4 -70 10 -23 9
-26 15 -23 47 3 37 4 38 53 45 137 18 174 25 187 35 7 6 22 13 33 16 11 2 21
5 23 6 2 0 12 -3 22 -9z"/>
<path d="M4672 2051 c-46 -15 -88 -34 -93 -42 -5 -8 -9 -163 -9 -346 0 -362
-1 -356 58 -369 15 -3 43 -10 62 -15 53 -14 99 -11 169 11 201 61 283 228 241
489 -14 84 -41 133 -110 202 -48 48 -67 60 -127 78 -87 26 -89 26 -191 -8z
m178 -121 c52 -26 75 -53 106 -120 22 -46 26 -69 26 -140 0 -143 -40 -219
-137 -259 -54 -23 -61 -23 -99 -10 -36 12 -42 18 -48 54 -11 63 -9 410 2 442
6 15 18 34 27 41 25 18 79 15 123 -8z"/>
<path d="M7570 2280 c-25 -4 -74 -15 -110 -25 -63 -18 -67 -18 -122 0 -73 22
-132 15 -212 -25 -32 -17 -65 -30 -73 -30 -25 0 -123 -103 -134 -140 -11 -38
8 -101 35 -117 8 -4 27 -26 42 -48 l28 -40 1 -240 0 -241 -47 -55 c-79 -93
-83 -131 -20 -192 61 -58 112 -70 302 -70 148 0 169 2 206 21 49 25 104 85
104 113 0 36 -30 93 -74 139 -38 40 -45 53 -55 117 -16 91 -6 337 15 370 21
34 71 53 184 72 25 4 59 16 75 26 49 32 110 99 107 118 -2 9 3 24 12 32 12 12
13 21 4 48 -26 73 -61 112 -133 149 -41 21 -82 27 -135 18z m-240 -105 c10
-12 10 -24 1 -54 -27 -93 -5 -104 72 -35 78 70 131 93 222 96 70 3 78 1 96
-21 36 -44 16 -151 -31 -166 -12 -4 -58 -6 -103 -5 -126 3 -130 2 -181 -31
-83 -56 -86 -68 -86 -374 0 -266 0 -266 24 -289 14 -15 46 -29 82 -36 32 -7
65 -17 72 -22 18 -16 15 -75 -5 -82 -9 -4 -72 -2 -140 5 -91 8 -151 8 -229 -1
-118 -12 -139 -9 -148 23 -8 33 18 65 61 72 56 9 93 25 103 45 5 9 10 160 11
336 l1 318 -23 19 c-18 15 -32 17 -66 12 -52 -8 -83 7 -83 40 0 27 31 65 53
65 28 0 154 45 202 71 57 32 77 35 95 14z"/>
</g>
</svg>
